<?xml version="1.0" standalone="no"?>
<svg xmlns="http://www.w3.org/2000/svg" viewBox="0 0 56.232 17.664" width="56.232" height="17.664"><path fill="#4DB8BF" fill-rule="nonzero" d="M0 0.67L0 0.24L5.78 0.24L5.78 2.45Q6.58 0 9.28 0Q11.98 0 12.55 2.59L12.55 2.59Q13.39 0 16.08 0L16.08 0Q19.61 0 19.61 4.01L19.61 4.01L19.61 11.23L20.95 11.23L20.95 11.66L14.30 11.66L14.30 11.23L15.14 11.23L15.14 3.43Q15.14 1.61 14.83 1.30L14.83 1.30Q14.69 1.15 14.45 1.15L14.45 1.15Q13.75 1.15 13.22 2.09Q12.70 3.02 12.70 4.46L12.70 4.46L12.70 11.23L13.56 11.23L13.56 11.66L7.39 11.66L7.39 11.23L8.23 11.23L8.23 3.43Q8.23 1.61 7.92 1.30L7.92 1.30Q7.78 1.15 7.54 1.15L7.54 1.15Q6.86 1.15 6.32 2.17Q5.78 3.19 5.78 4.61L5.78 4.61L5.78 11.23L6.65 11.23L6.65 11.66L0 11.66L0 11.23L1.32 11.23L1.32 0.67L0 0.67ZM20.98 0.67L19.99 0.67L19.99 0.24L26.95 0.24L26.95 0.67L25.66 0.67L28.27 8.64L31.06 0.67L29.45 0.67L29.45 0.24L32.83 0.24L32.83 0.67L31.63 0.67L27.14 13.61Q26.35 15.86 25.37 16.76Q24.38 17.66 22.97 17.66Q21.55 17.66 20.74 17.02Q19.92 16.37 19.92 15.36Q19.92 14.35 20.45 13.82Q20.98 13.30 21.84 13.30L21.84 13.30Q23.83 13.30 23.83 14.95L23.83 14.95Q23.83 15.31 23.69 15.82L23.69 15.82L22.85 15.82Q22.66 16.37 22.80 16.73Q22.94 17.09 23.45 17.09L23.45 17.09Q24.43 17.09 25.20 16.12Q25.97 15.14 26.66 13.15L26.66 13.15L27.19 11.66L25.08 11.66L20.98 0.67ZM39 0.43L39 0.43Q37.94 0.43 37.49 1.58Q37.03 2.74 37.03 5.40L37.03 5.40L37.03 6.65Q37.03 9.02 37.56 10.06Q38.09 11.09 39.50 11.09Q40.92 11.09 41.76 10.13Q42.60 9.17 42.84 7.94L42.84 7.94L43.27 7.99Q42.82 10.06 41.59 10.97L41.59 10.97Q40.34 11.90 38.16 11.90L38.16 11.90Q35.38 11.90 33.89 10.40Q32.40 8.90 32.40 6.01Q32.40 3.12 34.09 1.56Q35.78 0 38.81 0L38.81 0Q40.94 0 42.07 0.83Q43.20 1.66 43.20 2.90Q43.20 4.15 42.66 4.73Q42.12 5.30 41.17 5.30Q40.22 5.30 39.65 4.80Q39.07 4.30 39.07 3.31L39.07 3.31Q39.07 2.88 39.19 2.45L39.19 2.45L39.98 2.45Q40.15 1.97 40.15 1.58L40.15 1.58Q40.15 0.43 39 0.43ZM51.62 6.94L51.62 6.94L51.62 4.90Q51.62 2.57 51.37 1.50Q51.12 0.43 50.21 0.43L50.21 0.43Q49.68 0.43 49.36 0.73Q49.03 1.03 48.89 1.73L48.89 1.73Q48.67 2.81 48.67 5.02L48.67 5.02L48.67 6.89Q48.67 9.50 48.83 10.03Q48.98 10.56 49.15 10.90L49.15 10.90Q49.42 11.47 50.18 11.47L50.18 11.47Q51.12 11.47 51.41 10.39L51.41 10.39Q51.62 9.62 51.62 6.94ZM50.14 11.90Q47.14 11.90 45.60 10.37Q44.06 8.83 44.06 5.96Q44.06 3.10 45.71 1.55Q47.35 0 50.33 0Q53.30 0 54.77 1.43Q56.23 2.86 56.23 5.78L56.23 5.78Q56.23 11.90 50.14 11.90L50.14 11.90Z"></path></svg>